#define 05b43442b07d46d38b79ba08f48fec7cfEEHtAcNzfTQUvPT_width 20
#define 05b43442b07d46d38b79ba08f48fec7cfEEHtAcNzfTQUvPT_height 13
static char 05b43442b07d46d38b79ba08f48fec7cfEEHtAcNzfTQUvPT_bits[] = {
  0x00, 0x00, 0x00, 0x00, 0x00, 0x00, 0xF0, 0x7F, 0x00, 0x10, 0xC0, 0x01, 
  0x10, 0x40, 0x01, 0x10, 0x40, 0x01, 0x30, 0xE0, 0x01, 0x20, 0x20, 0x00, 
  0x20, 0x20, 0x00, 0x60, 0x30, 0x00, 0x40, 0x10, 0x00, 0xC0, 0x1F, 0x00, 
  0x00, 0x00, 0x00, };
