#define bb6a51e7da31454484db2cab4fa8516btoU3nUkkMHLrb27g_width 20
#define bb6a51e7da31454484db2cab4fa8516btoU3nUkkMHLrb27g_height 13
static char bb6a51e7da31454484db2cab4fa8516btoU3nUkkMHLrb27g_bits[] = {
  0x00, 0x00, 0x00, 0xFE, 0x0F, 0x00, 0x02, 0x08, 0x00, 0xC2, 0xFF, 0x01, 
  0x42, 0x00, 0x07, 0x46, 0x00, 0x05, 0x44, 0x00, 0x05, 0xC4, 0x80, 0x07, 
  0x8C, 0x80, 0x00, 0x88, 0x80, 0x00, 0xF8, 0xC1, 0x00, 0x00, 0x41, 0x00, 
  0x00, 0x7F, 0x00, };
