#define f48155d818b249aaa34f4008bd067cc4Q97AJWQBq7BftA1H_width 19
#define f48155d818b249aaa34f4008bd067cc4Q97AJWQBq7BftA1H_height 11
static char f48155d818b249aaa34f4008bd067cc4Q97AJWQBq7BftA1H_bits[] = {
  0x00, 0x00, 0x00, 0x00, 0x51, 0x07, 0x75, 0x11, 0x05, 0x51, 0x15, 0x07, 
  0x71, 0x15, 0x01, 0x11, 0x15, 0x01, 0x11, 0x15, 0x01, 0x11, 0xF5, 0x01, 
  0x1F, 0x45, 0x00, 0x00, 0x7D, 0x00, 0x00, 0x00, 0x00, };
