#define 3df9fa7e661d424aa34f5da59c7b259a0G7jSzzFyv9A68nD_width 128
#define 3df9fa7e661d424aa34f5da59c7b259a0G7jSzzFyv9A68nD_height 64
static char 3df9fa7e661d424aa34f5da59c7b259a0G7jSzzFyv9A68nD_bits[] = {
  0x00, 0x00, 0x00, 0x00, 0x00, 0x00, 0x40, 0x00, 0x00, 0x00, 0x00, 0x00, 
  0x00, 0x00, 0x00, 0x00, 0x00, 0x00, 0x00, 0x00, 0x00, 0x00, 0xB0, 0x00, 
  0x00, 0x00, 0x00, 0x00, 0x00, 0x00, 0xC0, 0x60, 0x00, 0x00, 0x00, 0x00, 
  0x00, 0x00, 0x88, 0x01, 0x00, 0x00, 0x00, 0x00, 0x00, 0x00, 0xC0, 0x71, 
  0x00, 0x00, 0x00, 0x00, 0x00, 0x00, 0x0C, 0x02, 0x00, 0x00, 0x00, 0x00, 
  0x00, 0x00, 0xC0, 0x71, 0x00, 0x00, 0x00, 0x00, 0x00, 0x00, 0x02, 0x06, 
  0x00, 0x00, 0x00, 0x00, 0x00, 0x00, 0xC0, 0x7B, 0x00, 0x00, 0x00, 0x00, 
  0x00, 0x00, 0x83, 0x06, 0x00, 0x00, 0x00, 0x00, 0x00, 0x00, 0xC0, 0x7B, 
  0x00, 0x00, 0x00, 0x00, 0x00, 0x00, 0xDC, 0x09, 0x00, 0x00, 0x00, 0x00, 
  0x00, 0x00, 0xC0, 0x6E, 0x00, 0x00, 0x00, 0x00, 0x00, 0xC0, 0x9E, 0x1B, 
  0x00, 0x00, 0x00, 0x00, 0x00, 0x00, 0xC0, 0x6E, 0x00, 0x00, 0x00, 0x00, 
  0x00, 0x40, 0x9F, 0x37, 0x00, 0x00, 0x00, 0x00, 0x00, 0x00, 0xC0, 0x6E, 
  0x00, 0x00, 0x00, 0x00, 0x00, 0xB0, 0xDF, 0x4F, 0x00, 0x00, 0x00, 0xFE, 
  0xF8, 0xC1, 0xC7, 0x64, 0x00, 0x00, 0x00, 0x00, 0x00, 0xD8, 0xDF, 0x9F, 
  0x00, 0x00, 0x00, 0xFE, 0xF9, 0xE3, 0x0F, 0x00, 0x00, 0x00, 0x00, 0x00, 
  0x00, 0xCC, 0x9F, 0xBF, 0x01, 0x00, 0x00, 0xFE, 0xF9, 0xF7, 0x1F, 0x00, 
  0x00, 0x00, 0x00, 0x00, 0x00, 0xF6, 0x9F, 0x7F, 0x03, 0x00, 0x00, 0xCE, 
  0x39, 0x77, 0x1C, 0x00, 0x00, 0x00, 0x00, 0x00, 0x00, 0xF2, 0xDF, 0xFF, 
  0x04, 0x00, 0x00, 0xCE, 0x39, 0x77, 0x1C, 0x00, 0x00, 0x00, 0x00, 0x00, 
  0x00, 0xFD, 0x9F, 0xFF, 0x05, 0x00, 0x00, 0xCE, 0x39, 0x77, 0x1C, 0x00, 
  0x00, 0x00, 0x00, 0x00, 0xC0, 0xF8, 0xDF, 0xFF, 0x19, 0x00, 0x00, 0xCE, 
  0x39, 0x77, 0x1C, 0x00, 0x00, 0x00, 0x00, 0x00, 0x40, 0xFC, 0xDF, 0xFF, 
  0x11, 0x00, 0x00, 0xCE, 0x39, 0x77, 0x1C, 0x00, 0x00, 0x00, 0x00, 0x00, 
  0x20, 0xF8, 0x9F, 0xFF, 0x68, 0x00, 0x00, 0xCE, 0x39, 0x77, 0x1C, 0x00, 
  0x00, 0x00, 0x00, 0x00, 0x90, 0xF9, 0x9F, 0xFF, 0x59, 0x00, 0x00, 0xCE, 
  0x39, 0x73, 0x1C, 0x00, 0x00, 0x00, 0x00, 0x00, 0xD8, 0xF1, 0xDF, 0xFF, 
  0xBC, 0x00, 0x00, 0xFE, 0xF9, 0x71, 0x1C, 0x00, 0x00, 0x00, 0x00, 0x00, 
  0xEC, 0xF3, 0x9F, 0xFF, 0xBC, 0x01, 0x00, 0xFE, 0xF9, 0x71, 0x1C, 0x00, 
  0x00, 0x00, 0x00, 0x00, 0xF2, 0xF3, 0xDF, 0xFF, 0x7C, 0x02, 0x00, 0xFE, 
  0xB8, 0x71, 0x1C, 0x00, 0x00, 0x00, 0x00, 0x00, 0xFA, 0xF3, 0xDF, 0x7F, 
  0xFE, 0x06, 0x00, 0x0E, 0xB8, 0x71, 0x1C, 0x00, 0x00, 0x00, 0x00, 0x80, 
  0xFD, 0xE7, 0x9F, 0x7F, 0xFE, 0x09, 0x00, 0x0E, 0xB8, 0x73, 0x1C, 0x00, 
  0x00, 0x00, 0x00, 0x40, 0xFC, 0xE7, 0x9F, 0x7F, 0xFE, 0x13, 0x00, 0x0E, 
  0xB8, 0x73, 0x1C, 0x00, 0x00, 0x00, 0x00, 0x60, 0xFF, 0xE7, 0xDF, 0x3F, 
  0xFF, 0x27, 0x00, 0x0E, 0x38, 0x73, 0x1C, 0x00, 0x00, 0x00, 0x00, 0x20, 
  0xFE, 0xC7, 0x9F, 0x3F, 0xFF, 0x67, 0x00, 0x0E, 0x38, 0xF3, 0x1F, 0x00, 
  0x00, 0x00, 0x00, 0x30, 0xFC, 0xCF, 0x9F, 0x3F, 0xFF, 0x81, 0x00, 0x0E, 
  0x38, 0xE7, 0x0F, 0x00, 0x00, 0x00, 0x00, 0xE8, 0xF0, 0xCF, 0x8F, 0x1F, 
  0xFF, 0xB9, 0x01, 0x0E, 0x38, 0xC7, 0x07, 0x00, 0x00, 0x00, 0x00, 0xEC, 
  0xF3, 0x1F, 0x8F, 0x9F, 0x7F, 0x7C, 0x02, 0x00, 0x00, 0x00, 0x00, 0x00, 
  0x00, 0x00, 0x00, 0xF2, 0xE3, 0x0F, 0x07, 0x87, 0x3F, 0xFC, 0x06, 0x00, 
  0x00, 0x00, 0x00, 0x00, 0x00, 0x00, 0x00, 0xF9, 0xCF, 0x0F, 0x00, 0x80, 
  0x1F, 0xFF, 0x05, 0x00, 0x00, 0x00, 0x00, 0x00, 0x00, 0x00, 0x80, 0xFC, 
  0x9F, 0x0F, 0x00, 0x00, 0x8F, 0xFF, 0x09, 0x00, 0x00, 0x00, 0x00, 0x00, 
  0x00, 0x00, 0x40, 0xFE, 0x1F, 0x0F, 0x00, 0x00, 0xC7, 0xFF, 0x37, 0x00, 
  0x00, 0x00, 0x00, 0x00, 0x00, 0x00, 0x20, 0xFF, 0x3F, 0x04, 0x00, 0x00, 
  0xE0, 0xFF, 0x2F, 0x00, 0x00, 0x00, 0x00, 0x00, 0x00, 0x00, 0xB0, 0xFF, 
  0x7F, 0xA0, 0xFF, 0x3F, 0xE0, 0xFF, 0x5F, 0x00, 0x00, 0x00, 0x00, 0x00, 
  0x00, 0x00, 0xD8, 0xFF, 0xFF, 0x3C, 0x00, 0xE0, 0xF7, 0xFF, 0x9F, 0x00, 
  0x00, 0x00, 0x00, 0x00, 0x00, 0x00, 0xE4, 0xFF, 0xFF, 0x03, 0x00, 0x00, 
  0xFE, 0xFF, 0xBF, 0x01, 0x00, 0x00, 0x00, 0x00, 0x00, 0x00, 0xF6, 0xFF, 
  0xFF, 0x01, 0x00, 0x00, 0xFC, 0xFF, 0x7F, 0x02, 0x00, 0x00, 0x00, 0x00, 
  0x00, 0x00, 0xF3, 0xFF, 0xFF, 0x81, 0xDD, 0x27, 0xFC, 0xFF, 0xFF, 0x06, 
  0x00, 0x00, 0x00, 0x00, 0x00, 0x80, 0xFD, 0xFF, 0xFF, 0xF7, 0xFF, 0xFF, 
  0xFF, 0xFF, 0xFF, 0x05, 0x00, 0x00, 0x00, 0x00, 0x00, 0x40, 0xFC, 0xFF, 
  0xFF, 0xFF, 0xDF, 0xFF, 0xFF, 0xFF, 0xFF, 0x1B, 0x00, 0x00, 0x00, 0x00, 
  0x00, 0x40, 0xFF, 0xFF, 0xFF, 0xFF, 0xCF, 0xFF, 0xFF, 0xFF, 0xFF, 0x17, 
  0x00, 0x00, 0x00, 0x00, 0x00, 0x30, 0xFF, 0xFF, 0xFF, 0xFF, 0xCF, 0xFF, 
  0xFF, 0xFF, 0xFF, 0x6F, 0x00, 0x00, 0x00, 0x00, 0x00, 0x90, 0xFF, 0xFF, 
  0xFF, 0xFF, 0xCF, 0xFF, 0xFF, 0xFF, 0xFF, 0xDF, 0x00, 0x00, 0x00, 0x00, 
  0x00, 0xC8, 0xFF, 0xFF, 0xFF, 0xFF, 0xCF, 0x3F, 0xF9, 0xFF, 0xFF, 0xBF, 
  0x00, 0x00, 0x00, 0x00, 0x00, 0xE4, 0xFF, 0xFF, 0xFF, 0xFF, 0xCF, 0x3F, 
  0xF9, 0xFF, 0xFF, 0x3F, 0x03, 0x00, 0x00, 0x00, 0x00, 0xF6, 0xFF, 0xFF, 
  0xFF, 0xFF, 0xCF, 0xFF, 0xFE, 0xFF, 0xFF, 0xFC, 0x02, 0x00, 0x00, 0x00, 
  0x00, 0xFB, 0xFC, 0x7C, 0x9F, 0x33, 0xCF, 0x1D, 0x78, 0x9E, 0x39, 0xF0, 
  0x05, 0x00, 0x00, 0x00, 0x80, 0x7C, 0x7C, 0x7E, 0x9E, 0x33, 0xCF, 0x8C, 
  0x61, 0x9C, 0x19, 0xE3, 0x0B, 0x00, 0x00, 0x00, 0x40, 0x7E, 0x78, 0x3C, 
  0x9E, 0x33, 0x4F, 0xCE, 0x47, 0x98, 0x99, 0xEF, 0x13, 0x00, 0x00, 0x00, 
  0x60, 0x7F, 0x38, 0xBC, 0x9C, 0x33, 0x0F, 0xE6, 0x4F, 0x98, 0xC9, 0xFF, 
  0x37, 0x00, 0x00, 0x00, 0x90, 0x7F, 0x3A, 0x9C, 0x1C, 0x30, 0x8F, 0xEF, 
  0x4F, 0x92, 0xC9, 0xE5, 0x6F, 0x00, 0x00, 0x00, 0xD8, 0x7F, 0x96, 0x1C, 
  0x18, 0x30, 0x0F, 0xE7, 0x4F, 0x86, 0xC9, 0xC1, 0x9F, 0x00, 0x00, 0x00, 
  0xE8, 0x7F, 0xD6, 0x1C, 0x98, 0x33, 0x4F, 0xC6, 0x67, 0x8E, 0x99, 0xC3, 
  0xBF, 0x01, 0x00, 0x00, 0xF4, 0x7F, 0xC6, 0xCC, 0x93, 0x33, 0x8F, 0x8C, 
  0x63, 0x8E, 0x19, 0xC5, 0x7F, 0x02, 0x00, 0x00, 0xF2, 0x7F, 0xCE, 0xE4, 
  0x83, 0x33, 0xCA, 0x1D, 0x70, 0x9E, 0x39, 0xF0, 0xFF, 0x02, 0x00, 0x00, 
  0xFB, 0x7F, 0xFE, 0xE7, 0xBF, 0xFF, 0xDD, 0x39, 0xFC, 0xDF, 0xFD, 0xFA, 
  0xFF, 0x05, 0x00, 0x00, 0xF9, 0xFF, 0xFF, 0xFF, 0xFF, 0xFF, 0xFF, 0xFF, 
  0xFF, 0xFF, 0xFF, 0xFF, 0xFF, 0x06, 0x00, 0x00, 0xEA, 0xFE, 0xDD, 0xDD, 
  0xDB, 0xDD, 0xD7, 0xDD, 0xFB, 0x97, 0x7D, 0xF7, 0x77, 0x04, 0x00, 0x00, 
  0x02, 0x00, 0x00, 0x00, 0x00, 0x00, 0x00, 0x00, 0x00, 0x00, 0x00, 0x00, 
  0x00, 0x02, 0x00, 0x00, 0xFC, 0xFF, 0xFF, 0xFF, 0xFF, 0xFF, 0xFF, 0xFF, 
  0xFF, 0xFF, 0xFF, 0xFF, 0xFF, 0x01, 0x00, 0x00, 0x40, 0x08, 0x40, 0x40, 
  0x40, 0x88, 0x40, 0x88, 0x40, 0x04, 0x44, 0x40, 0x04, 0x00, 0x00, 0x00, 
  0x00, 0x00, 0x00, 0x00, 0x00, 0x00, 0x00, 0x00, 0x00, 0x00, 0x00, 0x00, 
  0x00, 0x00, 0x00, 0x00, };
